# xmcd
#
# Track frame offsets: 
#        150
#        10012
#        20083
#        29848
#        38522
#        47583
#        57095
#        66173
#        75571
#        83955
#        93778
#        104928
#
# Disc length: 1513 seconds
#
# Revision: 3
# Processed by: cddbd v1.5.2PL0 Copyright (c) Steve Scherf et al.
# Submitted via: ExactAudioCopy v1.3
#
DISCID=9305e70c
DTITLE=Flatt and Scruggs - Foggy Mountain Banjo
DYEAR=1995
DGENRE=Bluegrass
TTITLE0=Ground Speed
TTITLE1=Home Sweet Home
TTITLE2=Sally Ann
TTITLE3=Little Darlin', Pal Of Mine
TTITLE4=Reuben
TTITLE5=Cripple Creek
TTITLE6=Lonsesome Road Blues
TTITLE7=John Henry
TTITLE8=Fireball Mail
TTITLE9=Sally Goodwin
TTITLE10=Bugle Call Rag
TTITLE11=Cumberland Gap
EXTD=ID3G: 89
EXTT0=
EXTT1=
EXTT2=
EXTT3=
EXTT4=
EXTT5=
EXTT6=
EXTT7=
EXTT8=
EXTT9=
EXTT10=
EXTT11=
PLAYORDER=
